<?xml version="1.0" encoding="UTF-8"?>
<svg width="24" height="24" viewBox="0 0 24 24" fill="none" xmlns="http://www.w3.org/2000/svg">
  <path d="M12 2C8 2 4 2.5 4 6V15.5C4 17.43 5.57 19 7.5 19L6 20V21H8.5L10.5 19H13.5L15.5 21H18V20L16.5 19C18.43 19 20 17.43 20 15.5V6C20 2.5 16 2 12 2ZM7.5 17C6.67 17 6 16.33 6 15.5C6 14.67 6.67 14 7.5 14C8.33 14 9 14.67 9 15.5C9 16.33 8.33 17 7.5 17ZM11 10H6V6H11V10ZM13.5 17C12.67 17 12 16.33 12 15.5C12 14.67 12.67 14 13.5 14C14.33 14 15 14.67 15 15.5C15 16.33 14.33 17 13.5 17ZM18 10H13V6H18V10Z" fill="currentColor"/>
</svg>
